<?xml version="1.0" encoding="utf-8"?>
<!-- Generator: Adobe Illustrator 16.0.4, SVG Export Plug-In . SVG Version: 6.00 Build 0)  -->
<!DOCTYPE svg PUBLIC "-//W3C//DTD SVG 1.1//EN" "http://www.w3.org/Graphics/SVG/1.1/DTD/svg11.dtd">
<svg version="1.1" id="Ebene_1" xmlns="http://www.w3.org/2000/svg" xmlns:xlink="http://www.w3.org/1999/xlink" x="0px" y="0px"
	 width="397px" height="74px" viewBox="0 0 397 74" enable-background="new 0 0 397 74" xml:space="preserve">
<g>
	<rect x="-2" y="3" fill="#FFFFFF" width="395.574" height="71.922"/>
	<path fill="#FF2B05" d="M6.73,63.168l-2.882-4.152h2.746l1.543,2.289l1.527-2.289h2.66l-2.883,4.102l3.239,4.66H9.934l-1.832-2.762
		L6.27,67.777H3.578L6.73,63.168z M6.73,63.168"/>
	<path d="M24.09,62.59h-8.563v-1.812h8.563V62.59z M24.09,66.219h-8.563v-1.812h8.563V66.219z M24.09,66.219"/>
	<path d="M30.648,57.656h-2.406v-1.98h2.406V57.656z M28.242,59.016h2.406v8.762h-2.406V59.016z M28.242,59.016"/>
	<path d="M32.211,59.016H34.5v1.219h0.051c0.609-0.984,1.66-1.457,2.676-1.457c2.562,0,3.207,1.441,3.207,3.609v5.391h-2.411v-4.949
		c0-1.441-0.421-2.152-1.543-2.152c-1.304,0-1.863,0.73-1.863,2.508v4.594h-2.406V59.016z M32.211,59.016"/>
	<path d="M48.18,66.66h-0.035c-0.559,0.949-1.543,1.355-2.661,1.355c-2.644,0-3.933-2.27-3.933-4.695
		c0-2.355,1.304-4.543,3.883-4.543c1.035,0,2.05,0.441,2.609,1.305h-0.016h0.032v-4.406h2.41v12.105H48.18V66.66z M46.078,60.59
		c-1.578,0-2.121,1.359-2.121,2.797c0,1.375,0.629,2.816,2.121,2.816c1.594,0,2.067-1.391,2.067-2.832
		C48.145,61.949,47.637,60.59,46.078,60.59"/>
	<path d="M53.926,63.98c0.066,1.527,0.812,2.223,2.152,2.223c0.969,0,1.746-0.594,1.899-1.137h2.121
		c-0.68,2.07-2.121,2.949-4.106,2.949c-2.762,0-4.472-1.898-4.472-4.609c0-2.629,1.812-4.629,4.472-4.629
		c2.985,0,4.426,2.508,4.258,5.203H53.926z M57.844,62.457c-0.223-1.223-0.746-1.867-1.918-1.867c-1.524,0-1.965,1.188-2,1.867
		H57.844z M57.844,62.457"/>
	<path d="M61.336,59.016h2.289v1.117h0.031c0.578-0.93,1.528-1.355,2.614-1.355c2.746,0,3.984,2.223,3.984,4.715
		c0,2.34-1.289,4.523-3.852,4.523c-1.05,0-2.05-0.457-2.629-1.32h-0.031v4.172h-2.406V59.016z M67.844,63.422
		c0-1.391-0.559-2.832-2.102-2.832c-1.578,0-2.086,1.41-2.086,2.832c0,1.426,0.543,2.781,2.102,2.781
		C67.336,66.203,67.844,64.848,67.844,63.422"/>
	<path d="M73.336,63.98c0.07,1.527,0.816,2.223,2.152,2.223c0.969,0,1.746-0.594,1.903-1.137h2.117
		c-0.68,2.07-2.117,2.949-4.102,2.949c-2.765,0-4.476-1.898-4.476-4.609c0-2.629,1.812-4.629,4.476-4.629
		c2.985,0,4.422,2.508,4.254,5.203H73.336z M77.254,62.457c-0.223-1.223-0.746-1.867-1.918-1.867c-1.524,0-1.965,1.188-2,1.867
		H77.254z M77.254,62.457"/>
	<path d="M80.746,59.016h2.289v1.219h0.051c0.609-0.984,1.66-1.457,2.68-1.457c2.558,0,3.203,1.441,3.203,3.609v5.391h-2.41v-4.949
		c0-1.441-0.422-2.152-1.539-2.152c-1.309,0-1.868,0.73-1.868,2.508v4.594h-2.406V59.016z M80.746,59.016"/>
	<path d="M96.715,66.66H96.68c-0.559,0.949-1.543,1.355-2.66,1.355c-2.645,0-3.934-2.27-3.934-4.695
		c0-2.355,1.305-4.543,3.883-4.543c1.035,0,2.051,0.441,2.609,1.305h-0.016h0.036v-4.406h2.406v12.105h-2.289V66.66z M94.613,60.59
		c-1.578,0-2.121,1.359-2.121,2.797c0,1.375,0.629,2.816,2.121,2.816c1.594,0,2.067-1.391,2.067-2.832
		C96.68,61.949,96.172,60.59,94.613,60.59"/>
	<path d="M102.461,63.98c0.07,1.527,0.816,2.223,2.152,2.223c0.969,0,1.746-0.594,1.903-1.137h2.117
		c-0.68,2.07-2.117,2.949-4.102,2.949c-2.765,0-4.476-1.898-4.476-4.609c0-2.629,1.812-4.629,4.476-4.629
		c2.985,0,4.422,2.508,4.254,5.203H102.461z M106.379,62.457c-0.223-1.223-0.746-1.867-1.918-1.867c-1.523,0-1.965,1.188-2,1.867
		H106.379z M106.379,62.457"/>
	<path d="M109.871,59.016h2.289v1.219h0.051c0.609-0.984,1.66-1.457,2.68-1.457c2.558,0,3.203,1.441,3.203,3.609v5.391h-2.41v-4.949
		c0-1.441-0.422-2.152-1.539-2.152c-1.309,0-1.868,0.73-1.868,2.508v4.594h-2.406V59.016z M109.871,59.016"/>
	<path d="M122.637,59.016h1.761v1.609h-1.761v4.34c0,0.812,0.203,1.016,1.015,1.016c0.254,0,0.493-0.016,0.746-0.066v1.883
		c-0.406,0.066-0.933,0.086-1.406,0.086c-1.476,0-2.765-0.34-2.765-2.086v-5.172h-1.457v-1.609h1.457v-2.629h2.41V59.016z
		 M122.637,59.016"/>
	<rect x="125.281" y="55.676" width="2.406" height="12.102"/>
	<path d="M133.57,68.883c-0.527,1.406-1.355,1.984-3.019,1.984c-0.489,0-0.981-0.035-1.473-0.086v-1.984
		c0.457,0.035,0.934,0.102,1.406,0.086c0.832-0.086,1.102-0.949,0.832-1.645l-3.086-8.223h2.579l1.98,6h0.035l1.914-6h2.492
		L133.57,68.883z M133.57,68.883"/>
	<path d="M146.336,58.777c2.762,0,4.543,1.832,4.543,4.629c0,2.781-1.781,4.609-4.543,4.609c-2.746,0-4.527-1.828-4.527-4.609
		C141.809,60.609,143.59,58.777,146.336,58.777 M146.336,66.203c1.644,0,2.137-1.406,2.137-2.797c0-1.41-0.493-2.816-2.137-2.816
		c-1.629,0-2.117,1.406-2.117,2.816C144.219,64.797,144.707,66.203,146.336,66.203"/>
	<path d="M151.762,59.016h2.289v1.625h0.031c0.441-1.102,1.629-1.863,2.797-1.863c0.172,0,0.375,0.035,0.527,0.082v2.238
		c-0.222-0.047-0.578-0.082-0.863-0.082c-1.766,0-2.375,1.27-2.375,2.812v3.949h-2.406V59.016z M151.762,59.016"/>
	<path d="M166.441,67.219c0,1.441-0.507,3.883-4.543,3.883c-1.73,0-3.746-0.812-3.867-2.812h2.391
		c0.223,0.898,0.949,1.203,1.797,1.203c1.34,0,1.953-0.918,1.933-2.172v-1.152h-0.035c-0.523,0.918-1.574,1.355-2.625,1.355
		c-2.629,0-3.746-2-3.746-4.406c0-2.273,1.305-4.34,3.762-4.34c1.152,0,2.035,0.391,2.609,1.406h0.035v-1.168h2.289V67.219z
		 M164.152,63.289c0-1.426-0.492-2.699-2.05-2.699c-1.356,0-1.95,1.188-1.95,2.492c0,1.258,0.477,2.629,1.95,2.629
		C163.477,65.711,164.152,64.543,164.152,63.289"/>
	<path d="M167.594,61.711c0.136-2.258,2.152-2.934,4.121-2.934c1.746,0,3.847,0.391,3.847,2.492v4.559
		c0,0.797,0.086,1.598,0.305,1.953h-2.441c-0.086-0.273-0.153-0.562-0.168-0.848c-0.762,0.797-1.883,1.082-2.953,1.082
		c-1.66,0-2.981-0.828-2.981-2.625c0-1.984,1.492-2.461,2.981-2.664c1.476-0.219,2.851-0.168,2.851-1.152
		c0-1.035-0.715-1.188-1.562-1.188c-0.914,0-1.508,0.375-1.594,1.324H167.594z M173.156,63.488
		c-0.406,0.359-1.258,0.375-2.004,0.512c-0.746,0.152-1.422,0.406-1.422,1.285c0,0.902,0.696,1.121,1.477,1.121
		c1.879,0,1.949-1.492,1.949-2.016V63.488z M173.156,63.488"/>
	<path d="M177.086,59.016h2.289v1.219h0.051c0.613-0.984,1.664-1.457,2.679-1.457c2.563,0,3.207,1.441,3.207,3.609v5.391h-2.41
		v-4.949c0-1.441-0.422-2.152-1.543-2.152c-1.304,0-1.863,0.73-1.863,2.508v4.594h-2.41V59.016z M177.086,59.016"/>
	<path d="M188.938,57.656h-2.407v-1.98h2.407V57.656z M186.531,59.016h2.407v8.762h-2.407V59.016z M186.531,59.016"/>
	<path d="M189.953,65.965l4.563-5.137h-4.223v-1.812h7.395v1.812l-4.562,5.137h4.883v1.816h-8.055V65.965z M189.953,65.965"/>
	<path d="M200.941,63.98c0.066,1.527,0.812,2.223,2.152,2.223c0.965,0,1.746-0.594,1.898-1.137h2.121
		c-0.68,2.07-2.121,2.949-4.105,2.949c-2.762,0-4.477-1.898-4.477-4.609c0-2.629,1.816-4.629,4.477-4.629
		c2.984,0,4.426,2.508,4.258,5.203H200.941z M204.855,62.457c-0.219-1.223-0.746-1.867-1.914-1.867c-1.527,0-1.965,1.188-2,1.867
		H204.855z M204.855,62.457"/>
	<path d="M214.605,66.66h-0.035c-0.559,0.949-1.543,1.355-2.66,1.355c-2.645,0-3.934-2.27-3.934-4.695
		c0-2.355,1.305-4.543,3.883-4.543c1.031,0,2.051,0.441,2.609,1.305h-0.016h0.031v-4.406h2.41v12.105h-2.289V66.66z M212.504,60.59
		c-1.578,0-2.121,1.359-2.121,2.797c0,1.375,0.629,2.816,2.121,2.816c1.594,0,2.066-1.391,2.066-2.832
		C214.57,61.949,214.062,60.59,212.504,60.59"/>
	<path d="M225.676,57.914h-3.629v-2.238h9.918v2.238h-3.629v9.863h-2.66V57.914z M225.676,57.914"/>
	<path d="M233.016,55.676h9.055v2.238h-6.395v2.594h5.867v2.066h-5.867v2.969h6.527v2.234h-9.188V55.676z M233.016,55.676"/>
	<path d="M243.324,55.676h5.219c3.137,0,5.496,1.965,5.496,5.984c0,3.508-1.797,6.117-5.496,6.117h-5.219V55.676z M245.984,65.543
		h2.375c1.543,0,3.016-0.949,3.016-3.629c0-2.441-0.848-4-3.492-4h-1.898V65.543z M245.984,65.543"/>
	<path d="M261.648,63.98c0.07,1.527,0.816,2.223,2.152,2.223c0.969,0,1.746-0.594,1.898-1.137h2.121
		c-0.68,2.07-2.121,2.949-4.102,2.949c-2.766,0-4.477-1.898-4.477-4.609c0-2.629,1.812-4.629,4.477-4.629
		c2.98,0,4.422,2.508,4.254,5.203H261.648z M265.566,62.457c-0.223-1.223-0.746-1.867-1.918-1.867c-1.523,0-1.965,1.188-2,1.867
		H265.566z M265.566,62.457"/>
	<path d="M273.566,67.781h-2.68l-3-8.766h2.527L272.262,65h0.035l1.848-5.984h2.391L273.566,67.781z M273.566,67.781"/>
	<path d="M278.84,63.98c0.066,1.527,0.812,2.223,2.152,2.223c0.965,0,1.746-0.594,1.898-1.137h2.121
		c-0.68,2.07-2.121,2.949-4.105,2.949c-2.762,0-4.473-1.898-4.473-4.609c0-2.629,1.812-4.629,4.473-4.629
		c2.984,0,4.426,2.508,4.258,5.203H278.84z M282.754,62.457c-0.219-1.223-0.746-1.867-1.914-1.867c-1.527,0-1.965,1.188-2,1.867
		H282.754z M282.754,62.457"/>
	<path d="M286.246,59.016h2.289v1.219h0.051c0.613-0.984,1.664-1.457,2.68-1.457c2.562,0,3.203,1.441,3.203,3.609v5.391h-2.406
		v-4.949c0-1.441-0.426-2.152-1.543-2.152c-1.305,0-1.863,0.73-1.863,2.508v4.594h-2.41V59.016z M286.246,59.016"/>
	<path d="M299.012,59.016h1.766v1.609h-1.766v4.34c0,0.812,0.203,1.016,1.02,1.016c0.254,0,0.492-0.016,0.746-0.066v1.883
		c-0.406,0.066-0.934,0.086-1.41,0.086c-1.473,0-2.762-0.34-2.762-2.086v-5.172h-1.457v-1.609h1.457v-2.629h2.406V59.016z
		 M299.012,59.016"/>
	<path fill="#FF2B05" d="M13.984,15.625H2.691V5.293h34.997v10.332H26.395v29.977H13.984V15.625z M13.984,15.625"/>
	<path fill="#FF2B05" d="M39.617,5.293H73.59v10.332H52.035v5.024H73.59v9.597H52.035v5.024h21.563v10.332H39.617V5.293z
		 M39.617,5.293"/>
	<path fill="#FF2B05" d="M75.68,5.293h20.379c13.433,0,18.179,9.938,18.179,20.094c0,12.367-6.547,20.215-20.605,20.215H75.68V5.293
		z M88.098,35.27h4.855c7.738,0,8.867-6.266,8.867-10.055c0-2.535-0.793-9.59-9.769-9.59h-3.953V35.27z M88.098,35.27"/>
	<path fill="#FF2B05" d="M132.082,30.07l-3.785-6.285l-3.695,6.285h-9.098l8.637-12.703l-8.317-12.148h9.102l3.371,6.004
		l3.465-6.004h9.097l-8.312,12.148l8.637,12.703H132.082z M132.082,30.07"/>
	<path d="M174.203,45.623v-4.291h-19.583V6.871h-5.253v38.752H174.203L174.203,45.623z M191.159,45.734
		c1.073-0.293,2.031-0.711,2.875-1.252c0.843-0.541,1.582-1.197,2.214-1.967s1.214-1.631,1.747-2.585h0.164
		c0.055,0.99,0.193,1.857,0.412,2.599c0.221,0.742,0.541,1.367,0.963,1.871s0.967,0.879,1.637,1.127s1.473,0.371,2.406,0.371
		c0.697,0,1.354-0.037,1.967-0.109c0.615-0.074,1.232-0.184,1.857-0.33v-3.08c-0.258,0.055-0.523,0.1-0.799,0.137
		c-0.273,0.037-0.549,0.055-0.824,0.055c-1.082,0-1.816-0.371-2.201-1.113S203,39.61,203,38.143V25.326
		c0-3.245-0.945-5.725-2.834-7.439c-1.889-1.714-4.703-2.572-8.443-2.572c-2.017,0-3.736,0.197-5.157,0.591
		c-1.421,0.395-2.604,0.949-3.548,1.664c-0.945,0.715-1.674,1.563-2.187,2.544c-0.514,0.981-0.862,2.059-1.045,3.232l5.171,0.467
		c0.11-0.935,0.339-1.709,0.688-2.324c0.348-0.614,0.807-1.1,1.375-1.458c0.568-0.357,1.238-0.605,2.008-0.742
		c0.77-0.138,1.632-0.207,2.585-0.207c1.082,0,2.021,0.124,2.819,0.371c0.798,0.248,1.462,0.638,1.995,1.169
		c0.531,0.532,0.925,1.229,1.183,2.09c0.256,0.862,0.385,1.907,0.385,3.136v1.623l-6.684,0.11c-1.595,0.037-3.163,0.193-4.703,0.468
		c-1.54,0.275-2.911,0.77-4.112,1.485c-1.201,0.715-2.173,1.701-2.915,2.957c-0.743,1.256-1.114,2.865-1.114,4.827
		c0,2.751,0.752,4.915,2.255,6.491s3.75,2.365,6.738,2.365C188.853,46.174,190.086,46.027,191.159,45.734L191.159,45.734z
		 M184.861,41.141c-0.871-0.881-1.307-2.127-1.307-3.741c0-1.338,0.243-2.42,0.729-3.245c0.485-0.825,1.141-1.467,1.966-1.925
		s1.783-0.766,2.874-0.921s2.242-0.243,3.452-0.262l5.419-0.11v2.448c0,0.972-0.193,1.99-0.578,3.053s-0.967,2.044-1.747,2.943
		c-0.779,0.899-1.76,1.637-2.943,2.213c-1.183,0.578-2.562,0.867-4.139,0.867C186.974,42.461,185.731,42.021,184.861,41.141
		L184.861,41.141z M211.059,15.865v19.83c0,1.852,0.178,3.438,0.535,4.758s0.922,2.402,1.691,3.246
		c0.771,0.842,1.752,1.467,2.943,1.869s2.613,0.605,4.264,0.605c1.283,0,2.41-0.133,3.383-0.398
		c0.971-0.266,1.832-0.643,2.584-1.129c0.752-0.484,1.412-1.076,1.98-1.773s1.092-1.477,1.568-2.338h0.082
		c0,0.367,0.01,0.82,0.027,1.361c0.02,0.541,0.041,1.072,0.07,1.596c0.027,0.521,0.049,0.986,0.068,1.389
		c0.018,0.404,0.035,0.65,0.055,0.742h4.676c-0.02-0.127-0.037-0.412-0.055-0.852c-0.02-0.441-0.037-0.967-0.057-1.582
		c-0.018-0.613-0.031-1.266-0.041-1.953c-0.008-0.688-0.014-1.343-0.014-1.966V15.865h-4.949v17.245
		c0,1.485-0.184,2.801-0.551,3.947c-0.367,1.146-0.885,2.109-1.555,2.888c-0.668,0.779-1.475,1.375-2.42,1.789
		c-0.945,0.412-2.004,0.619-3.176,0.619c-1.156,0-2.123-0.125-2.902-0.373c-0.779-0.246-1.408-0.668-1.885-1.264
		s-0.82-1.38-1.031-2.352s-0.316-2.182-0.316-3.631V15.865H211.059L211.059,15.865z M264.4,34.595
		c-0.303-0.807-0.711-1.513-1.223-2.118c-0.514-0.605-1.115-1.123-1.803-1.554c-0.688-0.431-1.42-0.807-2.199-1.127
		s-1.582-0.596-2.406-0.825c-0.826-0.229-1.633-0.444-2.422-0.646c-1.191-0.293-2.281-0.573-3.271-0.839
		c-0.99-0.266-1.84-0.578-2.545-0.935s-1.256-0.798-1.65-1.32s-0.592-1.187-0.592-1.994c0-1.375,0.533-2.402,1.596-3.081
		c1.064-0.678,2.713-1.018,4.951-1.018c0.844,0,1.654,0.069,2.434,0.206c0.779,0.138,1.48,0.367,2.104,0.688
		c0.623,0.321,1.156,0.743,1.596,1.265c0.439,0.523,0.742,1.169,0.908,1.939l4.455-0.55c-0.514-2.548-1.736-4.4-3.672-5.556
		c-1.934-1.155-4.543-1.733-7.824-1.733c-3.705,0-6.523,0.711-8.457,2.132c-1.936,1.421-2.902,3.488-2.902,6.202
		c0,1.412,0.293,2.585,0.881,3.521c0.586,0.935,1.352,1.719,2.297,2.352c0.943,0.633,2.002,1.142,3.176,1.526
		c1.174,0.385,2.355,0.734,3.549,1.045c1.283,0.349,2.461,0.665,3.533,0.949c1.072,0.285,1.984,0.619,2.736,1.004
		c0.752,0.385,1.338,0.866,1.76,1.444s0.633,1.316,0.633,2.214c0,0.88-0.178,1.618-0.535,2.214c-0.357,0.597-0.857,1.073-1.5,1.431
		c-0.641,0.357-1.406,0.609-2.297,0.756c-0.889,0.146-1.865,0.221-2.928,0.221c-2.348,0-4.182-0.371-5.502-1.115
		c-1.32-0.742-2.191-1.911-2.611-3.506l-4.373,0.853c0.33,1.394,0.848,2.571,1.553,3.534s1.582,1.738,2.627,2.324
		s2.26,1.014,3.645,1.279s2.938,0.398,4.662,0.398c1.924,0,3.635-0.197,5.129-0.592s2.754-0.963,3.781-1.705s1.811-1.658,2.352-2.75
		c0.541-1.091,0.812-2.333,0.812-3.727C264.855,36.337,264.703,35.402,264.4,34.595L264.4,34.595z M281.977,45.734
		c1.072-0.293,2.029-0.711,2.873-1.252s1.582-1.197,2.215-1.967s1.215-1.631,1.746-2.585h0.164c0.057,0.99,0.193,1.857,0.414,2.599
		c0.219,0.742,0.539,1.367,0.963,1.871c0.42,0.504,0.967,0.879,1.635,1.127c0.67,0.248,1.473,0.371,2.408,0.371
		c0.695,0,1.352-0.037,1.965-0.109c0.615-0.074,1.234-0.184,1.857-0.33v-3.08c-0.258,0.055-0.523,0.1-0.797,0.137
		c-0.275,0.037-0.551,0.055-0.826,0.055c-1.082,0-1.814-0.371-2.199-1.113c-0.387-0.742-0.578-1.847-0.578-3.314V25.326
		c0-3.245-0.945-5.725-2.834-7.439c-1.889-1.714-4.703-2.572-8.443-2.572c-2.018,0-3.736,0.197-5.156,0.591
		c-1.422,0.395-2.604,0.949-3.549,1.664c-0.943,0.715-1.672,1.563-2.186,2.544c-0.514,0.981-0.861,2.059-1.045,3.232l5.17,0.467
		c0.109-0.935,0.34-1.709,0.688-2.324s0.807-1.1,1.375-1.458c0.568-0.357,1.238-0.605,2.008-0.742
		c0.771-0.138,1.633-0.207,2.586-0.207c1.082,0,2.021,0.124,2.818,0.371c0.799,0.248,1.463,0.638,1.994,1.169
		c0.531,0.532,0.926,1.229,1.184,2.09c0.256,0.862,0.385,1.907,0.385,3.136v1.623l-6.684,0.11c-1.596,0.037-3.162,0.193-4.703,0.468
		s-2.91,0.77-4.111,1.485c-1.201,0.715-2.174,1.701-2.916,2.957s-1.113,2.865-1.113,4.827c0,2.751,0.752,4.915,2.256,6.491
		c1.502,1.576,3.748,2.365,6.738,2.365C279.67,46.174,280.902,46.027,281.977,45.734L281.977,45.734z M275.678,41.141
		c-0.871-0.881-1.307-2.127-1.307-3.741c0-1.338,0.242-2.42,0.729-3.245c0.486-0.825,1.143-1.467,1.967-1.925
		s1.783-0.766,2.875-0.921c1.09-0.156,2.24-0.243,3.451-0.262l5.418-0.11v2.448c0,0.972-0.193,1.99-0.578,3.053
		s-0.967,2.044-1.746,2.943c-0.779,0.899-1.76,1.637-2.943,2.213c-1.182,0.578-2.562,0.867-4.139,0.867
		C277.791,42.461,276.549,42.021,275.678,41.141L275.678,41.141z M325.885,45.623v-19.83c0-1.833-0.178-3.415-0.535-4.745
		c-0.357-1.329-0.922-2.416-1.691-3.259c-0.771-0.843-1.752-1.467-2.943-1.871c-1.191-0.403-2.613-0.605-4.264-0.605
		c-1.283,0-2.41,0.133-3.383,0.399c-0.973,0.266-1.834,0.642-2.586,1.127c-0.752,0.486-1.412,1.078-1.979,1.774
		c-0.57,0.697-1.092,1.477-1.568,2.338h-0.082c0-0.366-0.01-0.82-0.027-1.361c-0.02-0.541-0.043-1.073-0.07-1.595
		s-0.051-0.985-0.068-1.389s-0.037-0.651-0.055-0.743h-4.676c0.018,0.128,0.037,0.413,0.055,0.853s0.037,0.967,0.055,1.582
		c0.02,0.614,0.033,1.265,0.043,1.953c0.008,0.688,0.014,1.343,0.014,1.966v23.405h4.949V28.379c0-1.485,0.184-2.801,0.551-3.947
		s0.885-2.108,1.555-2.888c0.668-0.779,1.475-1.375,2.42-1.788c0.943-0.413,2.002-0.619,3.176-0.619
		c1.156,0,2.123,0.124,2.902,0.371s1.406,0.669,1.883,1.265c0.477,0.596,0.822,1.38,1.033,2.352c0.209,0.972,0.314,2.182,0.314,3.63
		v18.867H325.885L325.885,45.623z M357.213,45.623v-19.83c0-1.833-0.18-3.415-0.537-4.745c-0.357-1.329-0.922-2.416-1.691-3.259
		s-1.752-1.467-2.943-1.871c-1.191-0.403-2.613-0.605-4.264-0.605c-1.283,0-2.41,0.133-3.383,0.399
		c-0.971,0.266-1.832,0.642-2.584,1.127c-0.752,0.486-1.412,1.078-1.98,1.774c-0.568,0.697-1.092,1.477-1.568,2.338h-0.082
		c0-0.366-0.01-0.82-0.027-1.361c-0.02-0.541-0.041-1.073-0.068-1.595s-0.051-0.985-0.07-1.389
		c-0.018-0.403-0.037-0.651-0.055-0.743h-4.676c0.02,0.128,0.037,0.413,0.055,0.853c0.02,0.44,0.037,0.967,0.057,1.582
		c0.018,0.614,0.031,1.265,0.041,1.953c0.008,0.688,0.014,1.343,0.014,1.966v23.405h4.951V28.379c0-1.485,0.182-2.801,0.549-3.947
		s0.885-2.108,1.555-2.888c0.668-0.779,1.475-1.375,2.42-1.788c0.943-0.413,2.004-0.619,3.176-0.619
		c1.156,0,2.123,0.124,2.902,0.371s1.406,0.669,1.885,1.265c0.477,0.596,0.82,1.38,1.031,2.352c0.211,0.972,0.316,2.182,0.316,3.63
		v18.867H357.213L357.213,45.623z"/>
	<path d="M389.863,31.789v-0.66c0-2.237-0.217-4.318-0.646-6.243c-0.432-1.925-1.156-3.598-2.174-5.02
		c-1.018-1.42-2.365-2.535-4.043-3.341s-3.764-1.21-6.256-1.21c-1.834,0-3.559,0.271-5.172,0.812
		c-1.613,0.541-3.025,1.417-4.234,2.626c-1.211,1.21-2.164,2.783-2.861,4.717c-0.697,1.935-1.045,4.295-1.045,7.083
		c0,5.17,1.15,9.067,3.451,11.688c2.301,2.623,5.652,3.934,10.053,3.934c1.98,0,3.672-0.217,5.074-0.646
		c1.404-0.432,2.572-0.98,3.508-1.65s1.682-1.42,2.24-2.256c0.561-0.834,0.996-1.663,1.307-2.488l-4.346-1.238
		c-0.457,1.32-1.334,2.412-2.625,3.273c-1.293,0.861-3.012,1.293-5.158,1.293c-1.467,0-2.723-0.262-3.768-0.783
		c-1.045-0.523-1.902-1.256-2.572-2.201c-0.668-0.944-1.164-2.072-1.484-3.383s-0.48-2.746-0.48-4.305H389.863L389.863,31.789z
		 M368.686,27.994c0.072-1.797,0.375-3.277,0.906-4.442c0.533-1.164,1.184-2.085,1.953-2.764c0.77-0.678,1.609-1.15,2.518-1.416
		c0.906-0.266,1.773-0.399,2.598-0.399c2.477,0,4.373,0.72,5.693,2.159c1.32,1.44,2.119,3.727,2.393,6.862H368.686L368.686,27.994z"
		/>
</g>
</svg>
